<?xml version="1.0" encoding="utf-8" ?><svg xmlns="http://www.w3.org/2000/svg" xmlns:xlink="http://www.w3.org/1999/xlink" width="333" height="334" viewBox="0 0 333 334"><path fill="#F9F9F2" d="M0 0L333 0L333 334L0 334L0 0Z"/><defs><linearGradient id="gradient_0" gradientUnits="userSpaceOnUse" x1="77.280266" y1="38.066448" x2="236.6866" y2="263.88501"><stop offset="0" stop-color="#235134"/><stop offset="1" stop-color="#16444D"/></linearGradient></defs><path fill="url(#gradient_0)" d="M166.377 14.5559C170.322 15.6955 175.629 17.8142 179.796 19.1727L227.879 35.2365L257.613 45.0637C261.062 46.2081 272.449 49.8453 275.218 51.5675C275.676 57.272 275.462 65.9184 275.463 71.8096L275.464 106.702L275.485 144.018C275.491 157.615 275.774 167.012 274.086 180.609C281.152 182.306 288.849 183.517 295.772 185.423C306.939 188.497 319.843 190.9 330.687 194.795C330.276 197.081 329.968 198.15 328.958 200.238C324.601 199.238 319.22 197.505 314.78 196.312C305.128 193.754 295.433 191.359 285.701 189.129C246.283 180.458 206.036 176.123 165.677 176.201C125.227 176.084 84.8942 180.542 45.4468 189.49C30.6842 192.792 17.6412 196.557 3.16678 200.375C2.89163 198.519 2.39174 196.645 1.94648 194.818C19.4382 189.688 40.6383 183.929 58.5263 181.011C56.518 167.864 57.0805 154.444 57.0846 141.129L57.1493 88.9876L57.07 64.4104C57.063 60.9752 56.8792 54.6762 57.3201 51.5652C59.8369 49.972 66.2068 47.908 69.2022 46.8951C76.9148 44.287 84.7025 41.8392 92.4336 39.2518C107.711 34.0732 123.025 29.0025 138.374 24.0402C147.581 20.9652 157.134 17.4067 166.377 14.5559Z"/><path fill="#F9F9F2" d="M70.8754 61.1146C76.8818 59.4646 82.9931 57.2864 88.9222 55.296L116.574 45.9624C133.007 40.3892 150.229 35.0853 166.481 29.2322C173.446 32.1754 183.21 35.0383 190.434 37.4779L229.995 50.7386C236.814 52.9551 243.615 55.2276 250.397 57.5558C253.897 58.7323 258.244 60.0556 261.641 61.3473L261.698 125.546L261.67 143.232C261.678 146.5 261.607 151.417 262.119 154.531C251.549 143.435 241.52 131.855 231.141 120.598C228.614 117.857 224.933 113.514 222.415 111.075C220.225 112.594 217.619 115.398 215.591 117.244C211.312 121.136 207.01 125.445 202.632 129.216C202.15 128.533 200.503 126.295 200.193 125.681C198.194 124.901 188.158 112.805 185.778 110.231C179.298 103.222 172.446 96.0516 166.297 88.7716C156.911 98.65 147.712 108.704 138.704 118.928C134.63 123.539 131.087 126.856 127.384 132.015C126.416 131.033 123.454 128.137 122.815 127.186C118.402 123.21 113.045 117.561 108.58 114.129C106.835 116.041 104.846 118.324 102.98 120.061C94.6045 128.58 86.9193 137.857 78.5417 146.401C75.8945 149.101 73.4953 152.506 70.747 155.059L70.7437 94.7362C70.743 84.191 70.4265 71.5266 70.8754 61.1146Z"/><path fill="#647E66" d="M151 80.8869C152.098 77.4564 153.678 74.5435 155.331 71.3599C157.252 67.6619 158.758 64.1348 162.737 62.202C168.592 59.3572 174.824 57.6073 180.91 55.4515C180.984 55.4252 181.536 55.0179 181.551 54.9518C182.594 50.4547 187.504 43.729 192.824 45.1419C196.194 46.0371 198.929 53.2941 202.755 54.3531C207.224 56.1766 209.439 55.5409 213.483 56.4314C213.844 57.9537 214.449 61.3845 215.73 62.2112C216.747 62.8678 218.573 63.1751 219.514 64.1696C219.602 66.3797 208.562 70.8638 209.001 78.978C209.416 86.652 211.003 86.8197 213.349 93.0956C212.975 94.1366 211.35 97.8382 211.293 98.5068L211.844 99.3791C211.475 100.47 209.163 102.36 208.547 103.784C207.261 106.756 206.88 109.833 205.863 112.878C203.498 118.095 201.724 119.872 200.193 125.681C198.194 124.901 188.158 112.805 185.778 110.231C179.298 103.222 172.446 96.0516 166.297 88.7716C156.911 98.65 147.712 108.704 138.704 118.928C134.63 123.539 131.087 126.856 127.384 132.015C126.416 131.033 123.454 128.137 122.815 127.186C126.534 121.224 128.98 115.575 132.01 109.308C133.254 106.735 135.181 104.024 136.571 101.486C137.604 99.5998 138.557 96.7355 139.755 95.0601C143.981 89.1499 149.221 89.0098 151 80.8869Z"/><path fill="#D5AF63" d="M102.98 120.061C102.311 119.297 102.023 118.253 101.654 117.316C97.1635 105.922 98.4152 94.1095 106.215 84.396C111.263 78.1611 118.582 74.189 126.561 73.355C136.585 72.3102 143.296 74.6152 151 80.8869C149.221 89.0098 143.981 89.1499 139.755 95.0601C138.557 96.7355 137.604 99.5998 136.571 101.486C135.181 104.024 133.254 106.735 132.01 109.308C128.98 115.575 126.534 121.224 122.815 127.186C118.402 123.21 113.045 117.561 108.58 114.129C106.835 116.041 104.846 118.324 102.98 120.061Z"/><path fill="#F9F9F2" d="M165.322 22.4968C167.442 22.291 174.857 25.2144 177.23 25.986C185.594 28.6248 193.927 31.3575 202.229 34.1836L245.012 48.4186C250.09 50.1929 255.178 51.9407 260.274 53.662C262.542 54.4281 266.088 55.7371 268.323 56.199C268.692 78.8604 268.436 102.168 268.44 124.874L268.462 150.284C268.481 155.785 268.621 161.719 268.357 167.179C268.173 170.974 267.552 175.576 267.12 179.393L264.237 179.105C265.728 168.921 265.339 151.617 265.362 141.018L265.359 85.9151C265.368 77.0054 265.168 67.3667 265.476 58.5279L166.818 25.7719C166.099 25.6357 165.327 25.8086 164.639 26.043C155.203 29.2573 145.711 32.3862 136.251 35.5291L96.1284 48.8298C90.4939 50.7877 84.8421 52.6956 79.1737 54.5531C75.8648 55.6347 70.1151 57.3706 67.0667 58.7861C67.3309 70.1138 67.088 82.2819 67.0819 93.6736L67.0389 154.246C67.0075 162.1 66.9091 170.133 68.224 177.901C68.3198 178.467 67.5505 179.066 67.1009 179.361C65.2795 179.21 65.0638 176.918 64.8969 175.428C63.7655 165.335 64.0137 155.202 64.0162 145.062L64.0125 112.384L64.0143 77.4564C64.0096 70.5961 63.8804 63.2308 64.0881 56.4148C67.1862 55.6356 70.1764 54.3668 73.2127 53.3684C80.1486 51.0876 87.0099 48.4971 93.9365 46.2058C117.772 38.4238 141.567 30.5207 165.322 22.4968Z"/><path fill="#F9F9F2" d="M109.119 160.208C111.869 156.587 116.936 151.531 120.06 147.98L141.759 123.631C145.669 119.326 150.272 114.756 153.966 110.345C157.48 106.149 163.318 100.366 166.238 96.1742C165.529 100.973 164.555 105.257 163.602 109.997C162.374 116.405 161.009 122.785 159.509 129.135C163.71 127.537 166.968 125.98 170.979 123.936C171.293 125.895 171.669 128.003 171.894 129.959C169.349 134.208 154.126 152.043 150.23 155.45C150.874 149.186 151.737 143.092 152.589 136.853C148.363 139.705 144.499 142.791 140.378 145.614C140.773 143.736 140.895 142.759 141.058 140.882C130.532 148.222 119.839 155.321 108.988 162.174L108.467 161.729C108.669 161.054 108.792 160.84 109.119 160.208Z"/><path fill="#F9F9F2" d="M221.76 119.355C222.972 123.288 227.087 134.571 228.767 138.267C225.374 136.438 222.919 135.19 219.298 133.902C223.177 141.92 226.533 150.308 230.464 158.45L229.436 159.265C222.142 150.855 213.801 142.254 206.16 134.084C210.266 130.832 218.064 123.099 221.76 119.355Z"/><path fill="#F9F9F2" d="M80.1245 153.351C85.7852 147.054 91.7605 140.875 97.5021 134.638C100.978 130.862 105.302 126.709 108.471 122.699C106.717 131.384 104.966 139.942 102.72 148.517C102.312 150.073 101.931 151.709 101.645 153.293C100.357 149.703 99.6433 147.913 97.8209 144.603C91.5951 149.06 86.4278 151.919 80.0711 155.764C79.5786 155.004 79.919 154.5 80.1245 153.351Z"/><path fill="#CFE6D6" d="M80.1245 153.351C79.919 154.5 79.5786 155.004 80.0711 155.764C78.6786 156.902 76.9008 157.901 75.2801 158.673C76.8346 156.845 78.4504 155.07 80.1245 153.351Z"/><path fill="#CFE6D6" d="M105.296 164.517C106.601 162.842 107.634 161.705 109.119 160.208C108.792 160.84 108.669 161.054 108.467 161.729L108.988 162.174C107.909 163.045 106.507 163.807 105.296 164.517Z"/><path fill="#DBE7ED" d="M230.464 158.45C231.249 159.885 232.072 161.335 232.767 162.813C231.371 161.5 230.657 160.705 229.436 159.265L230.464 158.45Z"/><path fill="#1F4E3B" d="M153.34 236.613C165.257 236.12 180.125 236.532 192.057 237.122C233.867 238.95 275.292 245.918 315.399 257.868C315.011 259.733 314.471 261.613 313.975 263.455C308.913 261.696 301.146 259.836 295.887 258.507C283.48 255.367 270.979 252.608 258.403 250.234C252.532 249.159 246.629 248.395 240.747 247.386C239.081 249.488 233.632 253.942 231.468 255.679C214.894 268.987 194.702 279.532 175.453 288.515C172.385 290.026 169.407 291.408 166.179 292.545C158.192 289.34 149.508 284.877 141.804 280.956C123.395 271.587 106.937 261.907 91.9801 247.486C85.9172 248.854 76.8008 249.849 70.2419 251.108C52.869 254.449 35.639 258.494 18.5943 263.234C18.0505 261.738 17.4851 259.31 17.0629 257.7C61.4108 244.922 107.204 237.836 153.34 236.613Z"/><path fill="#163144" d="M153.319 242.241C153.94 241.96 170.811 241.753 171.489 241.975C173.553 242.355 180.302 242.286 182.81 242.376C192.309 242.716 201.798 243.312 211.265 244.163C214.561 244.437 223.91 244.548 225.862 246.968C227.888 245.324 228.762 245.85 231.088 246.37C228.284 249.058 225.102 251.532 221.984 253.842C204.76 266.608 185.582 275.692 166.312 284.867C147.808 277.066 115.851 259.901 101.391 246.312C103.802 246.136 104.494 245.614 106.447 246.927C107.069 246.607 107.479 246.194 108.005 245.733C119.939 243.407 140.888 242.573 153.319 242.241Z"/><path fill="#F9F9F2" d="M225.862 246.968C227.888 245.324 228.762 245.85 231.088 246.37C228.284 249.058 225.102 251.532 221.984 253.842C204.76 266.608 185.582 275.692 166.312 284.867C147.808 277.066 115.851 259.901 101.391 246.312C103.802 246.136 104.494 245.614 106.447 246.927C119.747 256.664 132.917 265.528 147.855 272.61C153.888 275.47 159.952 278.786 166.143 281.26C170.374 279.706 175.813 276.957 179.898 274.986C196.38 267.032 211.384 258.194 225.862 246.968Z"/><path fill="#647E66" d="M153.319 242.241C153.94 241.96 170.811 241.753 171.489 241.975C171.503 247.07 172.011 252.744 171.689 257.743C171.61 258.982 169.466 261.252 169.304 262.241C169.06 263.724 170.513 265.79 169.325 267.154C165.781 267.727 166.502 261.514 162.035 266.326C157.427 260.489 158.794 261.005 158.24 253.992C158.091 252.105 154.54 243.922 153.319 242.241Z"/><path fill="#163144" d="M141.728 187.219C143.78 186.703 144.602 186.366 146.528 185.541C147.44 187.052 148.622 188.716 149.62 190.195C153.438 186.289 153.757 184.941 158.045 188.928C156.282 190.626 153.87 192.373 151.892 193.886L154.446 195.902C156.334 194.153 158.203 192.552 160.163 190.883C161.616 191.808 162.565 192.709 163.612 194.055C161.833 195.672 160.032 197.264 158.208 198.831C160.2 200.179 163.077 201.663 165.252 202.913C164.004 204.691 162.974 205.797 161.459 207.31C159.761 206.732 158.346 205.815 156.81 204.905L156.691 205.224C157.14 206.17 157.086 215.576 157.006 217.315C156.006 217.492 154.58 217.449 154.038 217.761L154.023 218.442C154.321 219.991 153.113 221.437 152.24 222.833C156.067 222.354 160.577 222.416 164.469 222.455C164.512 224.052 164.445 225.785 164.416 227.393C160.53 227.236 155.284 227.518 151.376 227.633C141.811 227.914 132.149 228.714 122.592 228.964C122.349 226.937 122.282 226.085 122.334 224.017L134.071 223.499C132.825 221.604 131.714 220.056 133.84 218.248C132.192 218.362 130.541 218.432 128.89 218.456C128.425 214.31 128.435 210.391 128.586 206.235C127.319 207.353 125.146 208.64 123.642 209.382C122.165 208.198 120.665 207.045 119.141 205.922C122.569 203.851 124.352 202.765 127.296 200.117C125.573 199.046 123.911 198.02 122.241 196.866C123.337 195.35 124.261 194.409 125.805 193.362C127.649 194.549 129.008 195.434 130.728 196.793C131.849 195.258 132.992 193.737 134.155 192.233C130.551 192.325 126.976 192.571 123.344 192.644C123.115 191.504 122.652 189.737 123.189 188.692C125.182 187.648 134.743 187.681 137.376 187.677C144.47 187.665 138.208 195.609 136.459 198.314C140.075 197.929 144.695 197.802 148.41 197.566C145.858 194.654 143.393 190.701 141.728 187.219Z"/><path fill="#F7F9FB" d="M132.901 202.289C136.017 203.46 146.218 202.53 150.168 202.449C150.904 201.996 150.69 202.094 151.155 201.209L151.517 201.133L156.81 204.905L156.691 205.224C147.338 204.93 138.704 205.809 129.448 205.76C130.497 204.526 131.726 203.409 132.901 202.289Z"/><path fill="#B6CBD3" d="M148.548 217.626C151.421 217.178 154.107 217.286 157.006 217.315C156.006 217.492 154.58 217.449 154.038 217.761L154.023 218.442C153.44 218.227 149.498 217.781 148.548 217.626Z"/><path fill="#F7F9FB" d="M145.566 209.607C147.073 209.471 149.432 209.487 151.011 209.455L151.001 213.189L139.922 213.558C138.204 213.703 136.245 213.729 134.505 213.793L134.429 210.042C138.143 209.962 141.856 209.818 145.566 209.607Z"/><path fill="#F7F9FB" d="M144.691 217.608L148.12 217.451C147.474 219.49 146.93 220.99 146.12 222.969L140.188 223.23C139.842 223.244 139.921 223.216 139.564 223.06C138.838 220.537 138.644 219.855 136.848 217.815C139.176 217.987 142.294 217.736 144.691 217.608Z"/><path fill="#163144" d="M241.299 190.245C243.1 190.192 245.321 190.01 246.626 191.227C247.517 192.814 246.786 195.106 246.448 196.965C251.811 198.035 257.784 198.295 263.114 199.479C263.052 202.842 262.173 208.271 261.672 211.77C261.052 216.102 260.518 221.59 259.602 225.779C257.086 225.632 254.46 225.936 253.177 223.495C251.398 222.976 245.742 222.437 243.563 222.179C243.15 225.214 242.73 230.12 242.101 232.91C241.1 233.996 237.658 233.049 236.285 232.802C236.422 229.042 237.125 224.756 237.404 220.85C234.247 220.745 231.242 220.19 227.881 220.158C227.539 220.481 227.274 220.779 226.962 221.126C225.088 221.887 223.625 221.36 221.64 220.981C221.653 217.566 222.133 213.873 222.47 210.446C222.98 205.115 223.523 199.786 224.098 194.461C228.105 194.535 236.102 195.766 240.175 196.331C240.585 194.672 240.932 192.068 241.299 190.245Z"/><path fill="#F7F9FB" d="M244.838 212.182C248.268 212.38 251.677 212.831 255.04 213.532C254.883 215.157 254.725 216.425 254.456 218.041C251.414 217.761 247.243 217.005 244.167 216.498C244.461 215.195 244.649 213.53 244.838 212.182Z"/><path fill="#F7F9FB" d="M229.705 200.464C233.196 200.693 236.623 201.242 240.111 201.592C239.862 203.07 239.655 204.612 239.433 206.1C236.384 205.877 232.276 205.138 229.201 204.619L229.705 200.464Z"/><path fill="#F7F9FB" d="M245.857 202.457C249.525 202.894 252.715 203.399 256.348 204.027C256.124 205.448 255.884 206.866 255.629 208.282C253.535 208.133 247.468 207.073 245.362 206.642C245.567 205.2 245.73 203.908 245.857 202.457Z"/><path fill="#F7F9FB" d="M228.603 209.944C231.587 210.158 235.429 210.797 238.529 211.128C238.538 212.751 238.412 213.969 238.252 215.571C235.004 215.417 231.377 214.809 228.13 214.327C228.4 212.809 228.486 211.473 228.603 209.944Z"/><defs><linearGradient id="gradient_1" gradientUnits="userSpaceOnUse" x1="53.351704" y1="246.71996" x2="34.349373" y2="222.96997"><stop offset="0" stop-color="#102734"/><stop offset="1" stop-color="#1F3D55"/></linearGradient></defs><path fill="url(#gradient_1)" d="M22.786 223.207C25.195 222.339 30.5848 221.225 33.1723 220.651L50.4717 216.826C53.3585 216.179 59.2483 214.395 61.6467 214.264C63.0597 215.074 64.2512 218.773 63.8206 220.26C63.169 221.082 63.4701 220.808 62.2878 221.223C59.7218 222.002 57.5022 222.43 54.8645 222.956C55.9045 225.553 61.0762 222.574 60.8332 226.983C61.0477 228.132 60.8136 228.549 62.0686 228.89C63.0977 229.81 63.659 230.52 63.0403 231.974C63.2786 232.682 63.3801 232.894 63.433 233.628C64.5226 233.414 65.8186 233.046 66.8567 233.325C67.6526 234.026 68.3109 235.68 67.5327 236.544C64.8113 237.441 59.1576 238.445 56.0778 239.087C50.3805 240.313 44.6944 241.59 39.0202 242.918C35.4666 243.736 30.8767 244.674 27.4739 245.787C27.1873 244.562 26.8027 243.097 26.5822 241.879C28.398 241.471 30.2063 241.031 32.0063 240.558C31.2936 240.209 31.2305 240.095 30.771 239.439L30.4013 239.21C30.0571 238.233 30.0366 237.161 29.9488 236.116C33.7528 235.422 38.054 234.295 41.8549 233.387C42.4673 233.241 42.7007 232.812 42.9194 232.319L42.5548 231.96C39.4401 231.154 32.8752 235.691 29.9919 233.63C29.504 232.937 29.5591 232.746 29.6164 231.883C30.0309 231.131 30.5706 230.987 31.3635 230.601C30.3184 229.542 30.7932 229.771 29.3889 229.367C28.3445 229.383 28.0275 229.099 27.1755 228.553C26.4432 229.431 25.7906 230.197 24.6075 229.87C23.4099 228.655 23.0975 225.08 22.786 223.207Z"/><path fill="#163144" d="M22.786 223.207C25.195 222.339 30.5848 221.225 33.1723 220.651L50.4717 216.826C53.3585 216.179 59.2483 214.395 61.6467 214.264C63.0597 215.074 64.2512 218.773 63.8206 220.26C63.169 221.082 63.4701 220.808 62.2878 221.223C59.7218 222.002 57.5022 222.43 54.8645 222.956C55.0686 222.505 55.2675 222.14 55.5022 221.708L55.2572 221.392L53.1275 221.26C49.773 221.841 46.4427 222.552 43.1441 223.394C40.5071 224.06 30.9235 226.819 28.9824 226.759L29.2705 227.163C28.607 228.18 27.4797 228.068 27.1755 228.553C26.4432 229.431 25.7906 230.197 24.6075 229.87C23.4099 228.655 23.0975 225.08 22.786 223.207Z"/><path fill="#B6CBD3" d="M28.9824 226.759C28.7842 225.781 28.6929 226.083 29.0982 225.385C31.3629 224.146 56.3123 218.428 58.7313 218.497C58.7768 219.493 58.6859 219.973 59.3024 220.731C60.1431 221.287 61.2432 221.208 62.2878 221.223C59.7218 222.002 57.5022 222.43 54.8645 222.956C55.0686 222.505 55.2675 222.14 55.5022 221.708L55.2572 221.392L53.1275 221.26C49.773 221.841 46.4427 222.552 43.1441 223.394C40.5071 224.06 30.9235 226.819 28.9824 226.759Z"/><path fill="#163144" d="M58.7313 218.497C58.7768 219.493 58.6859 219.973 59.3024 220.731C60.1431 221.287 61.2432 221.208 62.2878 221.223C59.7218 222.002 57.5022 222.43 54.8645 222.956C55.0686 222.505 55.2675 222.14 55.5022 221.708L55.2572 221.392L53.1275 221.26C54.7267 220.765 56.0066 220.76 57.5911 220.364C58.6144 220.109 58.5488 219.375 58.7313 218.497Z"/><path fill="#DBE7ED" d="M63.433 233.628C60.5738 234.319 51.0889 236.912 48.7834 236.105L48.8133 235.768C51.0828 234.299 59.4146 233.095 62.7406 232.068L63.0403 231.974C63.2786 232.682 63.3801 232.894 63.433 233.628Z"/><path fill="#DBE7ED" d="M30.771 239.439C33.2103 238.652 41.6641 236.151 43.8347 236.826L43.8535 237.183C42.5243 238.44 34.3564 240.231 32.0063 240.558C31.2936 240.209 31.2305 240.095 30.771 239.439Z"/><path fill="#DBE7ED" d="M53.9385 228.335C55.9657 228.921 56.7034 229.18 58.7926 228.897L59.0918 229.584C57.1517 229.911 49.923 232.111 48.7151 231.033C49.3378 229.73 52.5783 228.844 53.9385 228.335Z"/><path fill="#DBE7ED" d="M29.3889 229.367C30.9203 229.144 32.6828 228.74 34.1714 228.957L34.3163 229.208C33.408 230.138 32.6389 230.417 31.3635 230.601C30.3184 229.542 30.7932 229.771 29.3889 229.367Z"/><path fill="#F7F9FB" d="M58.7926 228.897C59.8145 228.24 60.0491 227.9 60.8332 226.983C61.0477 228.132 60.8136 228.549 62.0686 228.89C61.2218 229.073 59.8655 229.33 59.0918 229.584L58.7926 228.897Z"/><path fill="#DBE7ED" d="M48.5504 224.813C49.4387 224.874 49.6041 224.82 50.2817 225.325L50.2721 225.844C48.8556 227.247 44.7603 228.04 42.742 228.426C41.9626 228.605 41.0038 228.957 40.3808 228.377C40.9421 226.565 46.7298 225.189 48.5504 224.813Z"/><path fill="#163144" d="M190.68 186.306C192.279 186.153 194.909 185.769 196.095 187.062C196.521 189.606 195.766 197.71 195.687 200.647C195.517 206.956 195.293 213.456 194.995 219.759C198.342 220.067 201.842 220.447 205.189 220.544C205.337 214.734 205.397 201.654 206.311 196.566C208.694 196.416 209.93 196.568 212.263 197.053C212.4 203.898 211.663 211.026 211.394 217.876C211.244 221.705 210.977 225.695 210.63 229.509C208.864 229.531 206.885 229.319 205.108 229.174L204.812 226.293L197.689 225.941C194.074 225.59 174.895 225.391 173.066 224.411C171.96 222.352 173.202 199.694 173.175 195.473C175.645 195.077 177.095 195.233 179.501 195.58C179.185 203.42 179.036 211.405 178.832 219.258C182.072 219.481 185.569 219.542 188.832 219.658C189.164 209.386 189.509 199.002 189.886 188.723C189.926 187.61 189.975 187.116 190.68 186.306Z"/><path fill="#163144" d="M226.236 289.162C228.848 288.114 233.257 286.596 235.491 285.319L237.119 287.826C235.49 290.714 234.813 292.235 234.584 295.636C235.459 295.624 239.951 295.198 240.294 295.311C241.33 296.546 240.324 298.326 239.227 298.72C237.238 299.434 235.074 300.167 233.387 298.621C230.819 298.996 231.021 305.427 225.081 303.392C224.962 304.413 225.417 306.086 225.649 307.162C225.251 308.004 224.97 308.861 224.248 309.39C223.447 309.548 223.395 309.481 222.613 309.127C222.152 309.217 221.688 309.264 221.29 309.498C221.884 310.891 222.58 312.726 223.222 314.045C226.035 319.821 223.924 320.832 218.97 323.212C217.929 321.866 217.503 321.153 216.876 319.593L220.249 318.3C219.757 317.026 218.264 312.252 217.812 311.487C216.848 312.246 216.165 316.182 215.832 317.581L215.554 317.745C214.015 317.714 212.892 316.222 211.799 315.104C213.548 312.716 213.969 310.175 214.795 307.304C212.924 307.81 211.728 308.051 209.823 308.37C209.666 307.151 209.517 305.931 209.378 304.709C210.488 304.389 214.448 303.369 215.138 302.827C213.738 301.606 209.437 302.667 209.459 299.455C210.337 297.91 212.874 298.59 214.512 297.55C214.99 296.858 215.19 296.458 214.66 295.786C213.054 295.568 209.172 297.559 207.453 298.321C206.824 297.234 206.131 296.239 206.327 294.976C207.328 293.809 217.493 290.201 218.907 290.864C219.628 291.45 219.744 292.098 220.031 292.973C220.529 294.506 218.773 297.298 219.503 299.556C220.932 301.053 223.004 299.125 224.501 298.796C225.793 298.513 226.393 299.617 227.679 298.136L227.557 297.528C225.408 296.472 222.069 299.158 219.923 298.134C219.694 297.308 219.671 297.115 219.64 296.258C220.116 295.473 219.875 295.632 220.605 295.251C222.25 291.848 222.577 290.666 222.851 286.785C223.815 286.57 225.197 286.131 226.056 286.421C226.679 287.294 226.468 287.767 226.279 288.908L226.236 289.162Z"/><path fill="#DBE7ED" d="M220.031 292.973C220.529 294.506 218.773 297.298 219.503 299.556C220.932 301.053 223.004 299.125 224.501 298.796C225.793 298.513 226.393 299.617 227.679 298.136L227.557 297.528C225.408 296.472 222.069 299.158 219.923 298.134C219.694 297.308 219.671 297.115 219.64 296.258C220.116 295.473 219.875 295.632 220.605 295.251C220.38 296.039 220.343 296.22 220.307 297.037C220.726 297.747 220.471 297.522 221.302 297.823C222.822 297.706 223.949 296.808 225.078 295.878C226.247 296.464 227.419 296.802 228.394 297.692L228.404 298.053C228.064 298.385 227.712 298.703 227.348 299.007C226.704 299.534 224.861 301.025 224.146 300.946C222.025 298.7 221.896 300.989 219.634 301.443C219.046 300.919 219.253 299.792 219.029 299.368C218.602 298.559 217.749 299.059 216.892 298.209C217.966 296.709 219.454 294.928 219.954 293.241L220.031 292.973Z"/><path fill="#DBE7ED" d="M221.29 309.498C220.495 308.215 219.618 306.242 219.985 304.753L220.339 304.565C221.854 305.464 221.993 307.379 222.613 309.127C222.152 309.217 221.688 309.264 221.29 309.498Z"/><path fill="#DBE7ED" d="M230.94 291.062L231.225 291.238C231.216 292.165 230.633 294.021 230.363 295.003L228.444 293.639C227.403 293.369 227.598 293.573 226.926 292.909L227.138 292.461C228.225 291.741 229.669 291.423 230.94 291.062Z"/><path fill="#163144" d="M266.199 262.913C268.55 265.858 271.078 269.786 273.418 272.901C276.138 276.629 278.855 280.421 281.508 284.185C284.74 288.772 282.519 290.175 278.617 292.465C277.589 291.489 276.279 290.56 276.769 289.077C277.504 288.339 278.369 288.281 279.423 288.043C277.831 285.36 275.677 282.681 273.766 280.184L273.105 280.686C272.43 282.085 270.47 283.073 269.136 283.856C269.871 284.918 270.605 286.008 271.394 287.028C272.273 286.25 273.631 284.866 274.686 284.565C276.171 284.757 276.274 285.577 276.895 286.856C274.863 288.353 271.913 289.918 269.536 290.832C268.793 289.488 267.601 286.841 266.257 286.308C265.577 286.479 265.822 286.322 265.377 286.996C265.367 289.056 270.502 295.991 271.956 297.563C271.03 298.335 269.876 299.246 269.037 300.076L266.141 295.852C264.755 293.805 263.358 291.765 261.951 289.733C260.624 287.762 260.929 286.987 258.738 284.384C256.249 281.163 253.572 277.142 251.153 273.776C255.612 270.824 262.243 266.466 266.199 262.913Z"/><path fill="#F7F9FB" d="M265.492 268.015C266.184 269.11 266.899 270.19 267.638 271.253C267.689 272.197 267.75 272.341 268.106 273.222L268.014 273.634L266.969 274.195C265.323 273.977 266.472 271.541 265.458 270.412C264.627 270.236 263.249 271.093 263 271.799C262.687 272.687 264.094 274.072 264.579 275.008C264.577 277.094 262.082 276.471 261.045 277.98C260.34 279.007 260.986 280.397 262.031 280.961C263.156 281.179 264.402 280.499 265.527 280.052L266.169 280.575C266.08 282.393 264.995 284.416 264.237 286.037C262.317 283.427 257.93 276.85 255.712 275.112C258.444 272.774 262.375 270.561 265.492 268.015Z"/><path fill="#1E3032" d="M260.205 273.427C261.237 273.81 261.949 275.023 261.882 276.121C261.476 276.929 261.683 276.66 260.58 277.062C259.279 276.659 258.36 276.382 258.421 274.932C258.871 274.083 259.381 273.892 260.205 273.427Z"/><path fill="#F7F9FB" d="M270.186 274.924C270.748 275.708 272.04 277.411 272.446 278.189C272.309 278.319 271.928 278.7 271.796 278.784L270.858 278.553C269.765 278.917 269.378 279.744 268.664 280.736C268.26 279.821 268.089 279.404 267.811 278.427C268.012 277.215 268.552 277.019 269.449 275.977C269.527 275.823 270.053 275.109 270.186 274.924Z"/><path fill="#DBE7ED" d="M267.638 271.253C268.137 271.944 269.905 274.298 270.186 274.924C270.053 275.109 269.527 275.823 269.449 275.977C269.186 274.699 269.049 274.405 268.014 273.634L268.106 273.222C267.75 272.341 267.689 272.197 267.638 271.253Z"/><path fill="#DBE7ED" d="M272.446 278.189C272.886 278.831 273.38 279.515 273.766 280.184L273.105 280.686C272.673 280.049 272.237 279.415 271.796 278.784C271.928 278.7 272.309 278.319 272.446 278.189Z"/><path fill="#163144" d="M288.926 219.445C290.445 219.311 308.618 223.752 310.701 224.505C309.734 229.101 308.353 233.914 307.486 238.52C305.949 246.682 303.087 245.914 296.298 244.404C296.251 242.623 296.223 241.855 295.874 240.109L295.943 239.722C297.547 239.045 299.629 241.565 301.417 239.716C301.64 238.775 301.66 239.159 301.36 238.261C300.497 237.383 292.037 236.089 290.243 235.68C289.608 237.268 287.785 241.477 286.075 241.78C284.34 241.491 283.328 239.607 282.13 238.206C287.298 231.775 286.594 226.968 288.926 219.445Z"/><path fill="#F7F9FB" d="M291.549 230.162C293.432 230.323 301.36 231.756 302.678 232.744C302.947 233.468 302.715 233.997 302.529 234.776C300.903 234.576 293.435 232.595 291.766 232.027C291.375 231.278 291.523 231.08 291.549 230.162Z"/><path fill="#DBE7ED" d="M293.577 224.633C295.526 225.098 302.704 226.342 303.89 227.11C304.099 227.974 303.862 228.339 303.55 229.184C301.449 228.615 294.735 227.227 293.232 226.345C293.045 225.502 293.205 225.536 293.577 224.633Z"/><path fill="#163144" d="M197.69 296.349L198.518 296.232C200.004 296.967 200.232 304.186 199.515 305.495C198.35 307.624 192.007 308.767 191.343 305.474C192.044 303.544 196.209 304.326 196.13 301.644C195.659 300.706 195.228 300.573 194.237 300.666C191.98 300.877 189.7 301.232 187.455 301.55C187.998 304.067 188.383 307.295 188.684 309.85C193.276 309.245 197.09 308.666 201.756 308.642C201.865 313 200.781 316.483 199.107 320.409C199.985 321.019 201.187 321.722 202.116 322.302L204.932 323.658C204.104 325.384 203.739 325.848 202.505 327.339C200.265 326.295 198.883 325.782 197.125 323.988C196.211 325.4 194.743 328.11 192.918 328.23C189.574 326.528 189.856 331.004 186.991 329.074C186.394 326.452 185.793 319.867 185.494 316.76C184.967 311.275 183.413 303.241 183.434 298.058C187.351 297.894 193.714 296.876 197.69 296.349Z"/><path fill="#F7F9FB" d="M189.051 313.855C189.155 313.891 189.755 314.216 189.762 314.23C191.364 317.213 191.549 318.549 194.288 320.653L192.263 323.845C191.84 324.664 191.367 325.801 190.978 326.664C190.055 323.021 189.618 317.757 189.051 313.855Z"/><path fill="#F9F9F2" d="M196.42 312.845C196.995 312.693 196.961 312.664 197.512 312.868C197.899 313.956 196.99 316.984 196.217 317.652L195.82 317.336C194.893 316.216 193.797 314.589 192.929 313.378C194.028 313.136 195.292 312.996 196.42 312.845Z"/><path fill="#163144" d="M91.9231 211.942C93.7801 212.078 99.2592 211.206 101.286 210.898L101.406 211.335L101.815 212.353C106.747 211.812 112.056 208.812 111.536 216.006C111.47 216.926 112.639 217.9 111.63 218.991C111.953 219.605 111.961 219.618 112.425 220.133L113.821 220.304L114.037 220.359C114.442 220.739 114.564 220.771 114.584 221.378C114.954 232.111 109.526 231.264 101.092 232.359C100.168 231.104 99.209 229.875 98.2166 228.672C100.805 228.067 108.517 228.407 108.58 225.068L108.271 224.861C105.135 224.67 88.996 227.296 85.5041 228.076C85.4734 225.42 85.4793 222.239 85.7185 219.631C89.6963 218.534 93.9713 218.337 98.011 217.644C100.071 217.291 105.309 217.358 106.536 215.613C104.443 214.087 86.6797 218.83 84.4777 217.121C84.1636 216.285 84.2495 216.13 84.3879 215.208L86.4663 214.591C86.3606 214.204 86.1584 213.79 85.9966 213.415L86.5042 212.982C87.3267 212.622 87.5349 212.53 88.4141 212.374C89.1899 212.44 89.5293 212.549 90.2055 212.235C90.9498 211.808 91.0654 211.825 91.9231 211.942Z"/><path fill="#DBE7ED" d="M113.821 220.304C110.813 220.758 91.6768 223.849 90.3302 223.107L90.672 223.332L90.3926 222.955L90.5881 223.313L90.3647 222.981C91.4745 221.572 94.5607 221.161 96.2437 221.071C100.898 220.823 107.119 218.972 111.63 218.991C111.953 219.605 111.961 219.618 112.425 220.133L113.821 220.304Z"/><path fill="#F7F9FB" d="M91.9231 211.942C93.7801 212.078 99.2592 211.206 101.286 210.898L101.406 211.335L101.815 212.353C96.6885 213.025 91.5716 213.771 86.4663 214.591C86.3606 214.204 86.1584 213.79 85.9966 213.415L86.5042 212.982C87.3267 212.622 87.5349 212.53 88.4141 212.374C89.1899 212.44 89.5293 212.549 90.2055 212.235C90.9498 211.808 91.0654 211.825 91.9231 211.942Z"/><path fill="#163144" d="M114.955 289.445C116.189 289.437 118.357 290.336 119.563 290.784C118.746 292.781 117.919 294.774 117.081 296.762C119.898 297.857 122.521 298.341 125.232 299.851C124.919 300.87 124.432 302.109 124.062 303.132C121.314 302.491 118.455 301.405 115.809 300.436C115.337 302.283 114.463 304.216 113.711 305.983C116.142 306.666 118.531 307.488 120.867 308.446C119.171 312.163 117.545 317.475 116.265 321.42L115.458 323.506C114.428 323.36 113.33 323.288 112.423 322.809C112.104 322.313 111.676 321.651 111.247 321.293C110.325 320.524 104.565 318.235 103.63 318.328C103.404 318.847 103.37 318.981 102.987 319.423C102 319.496 100.087 318.832 99.047 318.532C101.08 313.443 102.883 308.376 104.758 303.228C106.821 303.701 107.953 304.064 109.947 304.785C111.537 300.388 113.669 293.983 114.955 289.445Z"/><path fill="#F7F9FB" d="M107.206 307.898C109.1 308.271 113.809 310.245 115.663 311.021C114.535 312.687 113.553 315.278 112.756 317.174C111.796 317.067 106 314.581 104.481 314.013C105.609 312.134 106.423 309.943 107.206 307.898Z"/><path fill="#163144" d="M288.579 213.054C291.148 212.971 296.729 215.483 298.338 214.464C298.318 213.689 298.42 214.049 297.966 213.366C295.843 212.058 291.794 212.435 290.433 210.66C289.298 204.902 297.043 210.323 299.541 208.93L299.728 208.332C298.2 205.953 289.558 207.545 290.355 203.314C292.597 200.219 297.496 204.425 300.694 203.482C301.052 203 300.987 202.773 300.982 202.169C302.107 201.105 304.555 200.983 305.595 202.224C306.266 203.025 306.199 204.316 306.588 205.217C308.998 206.372 313.691 207.047 316.307 207.867C315.976 209.151 315.656 210.464 315.252 211.724C313.366 211.211 306.441 209.183 304.923 209.755L304.829 210.289C306.048 211.759 311.251 212.385 313.73 213.434C313.445 214.402 313.187 215.648 312.538 216.377C310.271 217.184 304.929 213.406 303.292 215.363C303.289 215.634 303.19 216.112 303.44 216.274C306.179 218.058 313.079 217.114 314.242 220.592C314.331 221.221 313.742 223.075 312.938 222.898C310.162 222.288 306.284 221.426 303.632 220.618C300.882 219.781 288.786 217.712 287.404 216.479C286.797 215.686 286.386 215.817 285.479 215.711C286.331 214.704 286.536 213.763 286.91 212.512C287.444 212.712 288.03 212.98 288.579 213.054Z"/><path fill="#F7F9FB" d="M286.91 212.512C287.444 212.712 288.03 212.98 288.579 213.054C287.926 214.297 287.461 215.044 287.404 216.479C286.797 215.686 286.386 215.817 285.479 215.711C286.331 214.704 286.536 213.763 286.91 212.512Z"/><path fill="#163144" d="M179.674 298.599C180.589 298.507 180.514 298.368 181.202 298.712C181.435 299.735 181.566 300.725 181.668 301.767C182.521 310.514 183.858 319.321 184.469 328.08C183.008 329.29 181.038 330.746 179.074 329.805C177.721 329.156 176.856 327.443 177.617 326.035C178.356 325.65 179.466 325.795 180.356 325.816C180.251 324.275 180.233 319.678 179.145 318.763L178.191 318.86C177.552 318.927 176.913 318.998 176.275 319.074C174.714 321.003 177.068 328.77 174.15 330.207C173.087 330.36 172.202 329.748 171.182 329.246C173.226 317.821 171.024 310.87 170.361 299.591C173.072 299.463 176.899 298.913 179.674 298.599Z"/><path fill="#F7F9FB" d="M176.443 302.831C177.063 302.796 177.038 302.806 177.591 302.994C178.269 304.125 178.62 305.457 178.001 306.729C177.848 307.043 177.217 307.019 176.845 307.076L175.577 307.02C174.714 306.485 174.173 305.311 174.393 304.301C174.722 302.791 175.196 302.997 176.443 302.831Z"/><path fill="#F7F9FB" d="M177.858 310.624L178.137 310.589C179.133 311.165 179.267 313.311 178.698 314.386C177.901 314.967 177.596 314.768 176.438 314.796C175.992 314.825 176.146 314.811 175.682 314.598C175.533 314.136 175.395 313.671 175.268 313.202C174.649 310.829 176.214 310.78 177.858 310.624Z"/><path fill="#163144" d="M148.818 296.779C150.611 296.719 151.429 296.861 153.178 297.122C153.239 298.791 153.069 301.387 153.002 303.122C156.483 303.498 159.263 303.8 162.763 303.734C162.801 305.149 162.673 306.671 162.584 308.092C159.717 308.01 155.918 307.474 152.972 307.149C152.524 312.82 152.32 321.93 156.359 326.292C157.482 323.749 157.754 322.605 158.075 319.891C159.397 320.725 160.596 321.68 161.834 322.632C161.169 325.364 160.495 327.777 158.557 329.886C147.792 332.625 147.549 313.433 148.232 306.869C143.15 306.537 137.615 305.39 132.507 304.916C130.359 304.716 131.536 301.986 131.925 300.557C136.564 301.502 143.632 302.326 148.408 302.854C148.447 300.774 148.633 298.848 148.818 296.779Z"/><path fill="#163144" d="M78.8384 197.266L78.9226 197.319C80.1954 197.092 80.7675 188.464 84.4263 192.143C85.0773 194.034 83.1009 195.222 82.8104 197.239L83.143 197.545C84.8833 197.059 84.6082 194.642 87.368 195.687L88.2588 195.625L88.4607 195.34C88.7536 196.152 88.7433 196.673 89.6426 196.993C90.7231 197.037 91.5993 196.779 92.2006 197.742C93.1939 197.936 97.4289 197.023 98.7445 196.794L99.778 198.225L99.871 200.312C100.053 201.209 100.051 201.988 99.8266 202.88C99.8748 203.735 99.8109 203.918 100.332 204.527C100.945 205.326 101.211 209.634 101.286 210.898C99.2592 211.206 93.7801 212.078 91.9231 211.942C91.0654 211.825 90.9498 211.808 90.2055 212.235C89.5293 212.549 89.1899 212.44 88.4141 212.374C88.4762 209.937 87.1145 209.728 87.191 207.472L86.3046 207.387C85.8244 207.295 85.1371 207.312 84.6272 207.306L84.6067 206.893L84.2659 206.654C83.5256 207.017 82.7936 207.396 82.0705 207.792L81.9194 207.431C80.6737 207.663 79.5084 207.86 79.0199 206.493C79.3073 204.768 81.8475 202.502 83.1358 200.861C81.9052 200.993 80.0479 201.424 79.1067 201.019C78.3288 199.825 78.6785 199.393 78.1506 198.189L78.8384 197.266Z"/><path fill="#163144" d="M100.332 204.527C100.945 205.326 101.211 209.634 101.286 210.898C99.2592 211.206 93.7801 212.078 91.9231 211.942C91.0654 211.825 90.9498 211.808 90.2055 212.235C89.5293 212.549 89.1899 212.44 88.4141 212.374C88.4762 209.937 87.1145 209.728 87.191 207.472L88.7381 207.032C89.2556 206.878 89.603 207.111 90.3793 206.697C91.6289 205.322 98.4206 204.57 100.332 204.527Z"/><path fill="#163144" d="M88.7381 207.032C89.2556 206.878 89.603 207.111 90.3793 206.697L91.3698 208.768L91.6775 209.595L91.9231 211.942C91.0654 211.825 90.9498 211.808 90.2055 212.235C89.5293 212.549 89.1899 212.44 88.4141 212.374C88.4762 209.937 87.1145 209.728 87.191 207.472L88.7381 207.032Z"/><path fill="#DBE7ED" d="M88.7381 207.032C89.2556 206.878 89.603 207.111 90.3793 206.697L91.3698 208.768L91.6775 209.595L91.9231 211.942C91.0654 211.825 90.9498 211.808 90.2055 212.235C90.2181 210.812 90.0338 207.728 88.7381 207.032Z"/><path fill="#2B4653" d="M91.3698 208.768C91.9268 208.231 91.9705 208.058 92.1705 207.311L92.7163 206.941C93.6277 207.269 93.7602 207.679 93.7148 208.652C93.2817 209.521 93.5378 209.309 92.7788 209.715L91.6775 209.595L91.3698 208.768Z"/><path fill="#DBE7ED" d="M95.2866 207.266C96.3571 207.215 97.3238 207.042 98.0592 207.939C97.9237 208.718 98.0037 208.447 97.4397 209.111C96.3768 209.226 95.8007 209.341 94.9569 208.784C94.8255 207.907 94.8511 208.202 95.2866 207.266Z"/><path fill="#F7F9FB" d="M92.2006 197.742C93.1939 197.936 97.4289 197.023 98.7445 196.794L99.778 198.225L99.871 200.312C100.053 201.209 100.051 201.988 99.8266 202.88C99.8748 203.735 99.8109 203.918 100.332 204.527C98.4206 204.57 91.6289 205.322 90.3793 206.697C89.603 207.111 89.2556 206.878 88.7381 207.032L87.191 207.472L86.3046 207.387C85.8244 207.295 85.1371 207.312 84.6272 207.306L84.6067 206.893L84.2659 206.654C83.5256 207.017 82.7936 207.396 82.0705 207.792L81.9194 207.431C82.0295 207.312 84.6075 205.645 85.0504 205.329C86.6904 205.889 88.4465 206.3 89.9444 205.169C90.4845 204.173 90.3527 204.613 90.273 203.315C90.4512 203.15 90.7339 202.753 90.8948 202.544C91.115 202.256 91.5747 201.778 91.8354 201.491C91.2206 201.155 91.3467 201.119 90.9219 200.419C90.9329 198.734 90.7751 198.739 92.2006 197.742Z"/><defs><linearGradient id="gradient_2" gradientUnits="userSpaceOnUse" x1="94.945236" y1="197.43951" x2="95.071579" y2="199.30934"><stop offset="0" stop-color="#203D3D"/><stop offset="1" stop-color="#263A46"/></linearGradient></defs><path fill="url(#gradient_2)" d="M92.2006 197.742C93.1939 197.936 97.4289 197.023 98.7445 196.794L99.778 198.225L99.871 200.312C97.2044 200.782 94.5248 201.175 91.8354 201.491C91.2206 201.155 91.3467 201.119 90.9219 200.419C90.9329 198.734 90.7751 198.739 92.2006 197.742Z"/><path fill="#DBE7ED" d="M99.778 198.225L99.871 200.312C97.2044 200.782 94.5248 201.175 91.8354 201.491C91.2206 201.155 91.3467 201.119 90.9219 200.419C93.1875 199.92 98.6762 199.651 99.778 198.225Z"/><path fill="#163144" d="M99.871 200.312C100.053 201.209 100.051 201.988 99.8266 202.88C98.7321 203.264 93.2645 204.161 92.0783 203.988C91.295 203.581 91.2921 203.398 90.8948 202.544C91.115 202.256 91.5747 201.778 91.8354 201.491C94.5248 201.175 97.2044 200.782 99.871 200.312Z"/><path fill="#F7F9FB" d="M87.368 195.687L88.2588 195.625L88.4607 195.34C88.7536 196.152 88.7433 196.673 89.6426 196.993C90.7231 197.037 91.5993 196.779 92.2006 197.742C90.7751 198.739 90.9329 198.734 90.9219 200.419C91.3467 201.119 91.2206 201.155 91.8354 201.491C91.5747 201.778 91.115 202.256 90.8948 202.544C90.7339 202.753 90.4512 203.15 90.273 203.315C88.833 199.198 87.7164 201.473 85.5615 200.999C85.4621 199.853 87.0568 199.591 87.8753 197.75C87.9893 196.812 87.7706 196.545 87.368 195.687Z"/><path fill="#163144" d="M58.3261 197.294C59.0247 197.246 58.9897 197.23 59.5904 197.58C60.0501 198.307 60.0059 198.456 60.0729 199.349C58.6069 202.464 42.72 202.827 41.7371 205.172C42.9521 206.894 54.8182 202.035 57.1852 203.036C57.5018 203.76 57.4643 203.879 57.4764 204.692C57.2528 205.135 57.301 205.275 56.8774 205.388C54.2158 206.103 51.2317 206.669 48.551 207.316L29.2544 211.78C26.8017 212.349 24.0471 214.255 22.9583 211.102C23.1879 210.265 22.9908 210.564 23.8 210.027C26.4508 209.417 35.6267 207.69 37.2109 206.326L37.0955 206.1C33.9412 205.633 23.0345 208.991 19.1887 209.733L17.6161 207.024C23.3535 204.892 28.9827 204.262 34.8514 202.68C36.0685 202.352 34.7157 201.325 35.1195 200.676C35.4864 199.892 37.6132 199.612 38.0129 199.392C39.3105 198.68 41.9814 200.788 42.1232 200.769C47.5307 200.024 53.0198 198.566 58.3261 197.294Z"/><path fill="#163144" d="M269.718 221.368C274.29 222.16 278.85 223.016 283.397 223.937C283.106 226.473 282.549 229.022 282.041 231.527C281.882 232.222 281.617 233.582 281.423 234.21L280.464 238.113C278.194 237.816 273.116 236.535 271.581 236.515C269.439 238.317 268.885 237.653 266.46 236.485C267.487 231.433 268.573 226.394 269.718 221.368Z"/><path fill="#F7F9FB" d="M273.39 226.722C274.321 226.918 276.862 227.309 277.45 227.88L277.399 228.477C277.259 229.426 276.954 231.924 276.661 232.707C275.276 232.489 273.889 232.285 272.5 232.096L273.39 226.722Z"/><path fill="#2B4653" d="M277.399 228.477L277.533 229.642C279.097 230.868 280.457 228.715 282.041 231.527C281.882 232.222 281.617 233.582 281.423 234.21C281.243 233.861 281.379 233.996 280.999 233.822C278.883 234.783 278.076 234.348 276.661 232.707C276.954 231.924 277.259 229.426 277.399 228.477Z"/><path fill="#163144" d="M54.4487 207.324C55.0645 207.246 56.1463 207.111 56.4606 207.744C57.0876 209.007 57.7233 211.802 57.5338 213.142C57.4286 213.299 57.303 213.486 57.1569 213.703C48.9595 215.464 36.9413 218.252 29.1334 219.927C28.4241 220.193 28.3842 220.222 27.6392 220.221C26.0667 219.175 25.7718 215.848 26.1486 214.144C27.0359 213.522 51.6431 207.907 54.4487 207.324Z"/><path fill="#DBE7ED" d="M50.3624 211.059C51.1342 210.916 51.2172 210.856 51.9089 211.142L52.0801 211.587C51.0336 213.002 35.9917 215.76 33.1807 216.283C32.1283 216.409 32.3698 216.545 31.6316 216.107L31.5471 215.626C31.9244 215.179 32.5544 214.867 33.1218 214.757C38.8638 213.641 44.6431 212.229 50.3624 211.059Z"/><path fill="#163144" d="M247.928 275.518L248.275 278.525C248.891 278.746 249.23 278.83 249.849 278.481C250.709 278.173 250.862 278.089 251.75 278.252C253.91 279.578 253.533 283.027 254.482 285.051C255.28 285.181 255.87 285.378 256.599 285.091C257.61 284.941 257.846 284.935 258.738 284.384C260.929 286.987 260.624 287.762 261.951 289.733L261.595 290.468C259.924 291.928 257.92 291.852 255.693 293.721C254.473 294.89 252.874 296.83 251.096 296.546C247.565 294.839 250.885 291.731 251.547 288.892C250.037 289.237 248.353 289.877 246.872 290.393L245.169 288.722C245.328 283.885 245.038 281.16 243.922 276.457C245.26 276.153 246.595 275.84 247.928 275.518Z"/><path fill="#DBE7ED" d="M248.275 278.525C248.891 278.746 249.23 278.83 249.849 278.481C250.133 280.424 250.898 283.815 250.023 285.495L249.565 285.514C248.314 283.938 248.292 280.527 248.275 278.525Z"/><path fill="#DBE7ED" d="M254.482 285.051C255.28 285.181 255.87 285.378 256.599 285.091C255.617 288.223 257.977 287.55 255.928 290.637L255.341 290.697C254.461 289.284 255.402 287.036 254.482 285.051Z"/><path fill="#B6CBD3" d="M258.738 284.384C260.929 286.987 260.624 287.762 261.951 289.733L261.595 290.468C261.544 290.331 261.364 289.843 261.256 289.753C259.476 288.277 258.924 285.462 256.599 285.091C257.61 284.941 257.846 284.935 258.738 284.384Z"/><path fill="#163144" d="M101.453 194.335C102.859 191.861 103.982 185.834 107.342 189.939C107.657 190.884 107.923 191.044 108.655 191.673C109.966 191.816 110.627 192.408 111.681 193.189C111 193.968 109.296 195.722 109.064 196.584C110.681 197.32 111.644 197.063 112.891 199.068C113.332 199.777 113.544 199.953 113.699 200.859C113.15 202.801 108.559 202.118 106.339 202.983L105.69 203.528C105.986 203.915 105.974 203.913 106.367 204.197L106.234 205.337L105.312 204.785C105.14 207.058 105.72 211.92 102.269 210.452C101.916 210.909 101.865 211.133 101.406 211.335L101.286 210.898C101.211 209.634 100.945 205.326 100.332 204.527C99.8109 203.918 99.8748 203.735 99.8266 202.88C100.051 201.988 100.053 201.209 99.871 200.312L99.778 198.225L98.7445 196.794C98.9268 196.024 98.9783 195.949 99.5948 195.451C100.283 194.861 100.272 194.554 100.491 193.67L101.453 194.335Z"/><path fill="#F7F9FB" d="M100.491 193.67L101.453 194.335C101.025 195.222 100.707 195.677 100.714 196.659C101.562 198.327 102.92 197.062 104.367 198.113C104.511 199.317 101.955 201.213 101.32 202.701L101.375 203.223C102.328 203.787 105.187 203.23 106.339 202.983L105.69 203.528C105.986 203.915 105.974 203.913 106.367 204.197L106.234 205.337L105.312 204.785C105.14 207.058 105.72 211.92 102.269 210.452C101.916 210.909 101.865 211.133 101.406 211.335L101.286 210.898C101.211 209.634 100.945 205.326 100.332 204.527C99.8109 203.918 99.8748 203.735 99.8266 202.88C100.051 201.988 100.053 201.209 99.871 200.312L99.778 198.225L98.7445 196.794C98.9268 196.024 98.9783 195.949 99.5948 195.451C100.283 194.861 100.272 194.554 100.491 193.67Z"/><path fill="#163144" d="M102.269 210.452C102.364 208.831 102.037 207.26 102.412 205.727C102.676 204.643 104.489 204.392 105.312 204.785C105.14 207.058 105.72 211.92 102.269 210.452Z"/><path fill="#F7F9FB" d="M107.342 189.939C107.657 190.884 107.923 191.044 108.655 191.673C107.842 192.552 106.732 194.002 105.719 194.412L105.487 194.193C105.735 192.556 106.534 191.397 107.342 189.939Z"/><path fill="#163144" d="M240.693 300.702C242.582 301.606 244.261 310.264 243.616 312.483C243.141 314.116 239.447 315.936 237.949 315.491C237.114 314.957 236.533 313.635 236.043 312.72C237.163 312.081 238.353 311.519 239.514 310.951C239.321 308.822 239.173 307.71 238.605 305.646C237.25 306.133 236.446 306.384 235.048 306.71C235.03 310.423 234.752 312.647 232.919 315.821C231.994 317.091 230.659 319.466 228.921 319.247C227.872 319.246 225.503 317.215 226.878 316.252C229.717 314.265 230.039 311.76 231.032 308.505C230.352 308.756 229.668 308.998 228.981 309.229C227.923 309.582 227.424 309.74 226.378 309.22C225.065 307.07 229.052 305.117 230.537 304.33C230.991 303.095 231.164 302.533 232.29 301.866C233.416 301.745 233.621 302.285 234.519 302.65C235.892 303.209 239.232 301.32 240.693 300.702Z"/><path fill="#163144" d="M131.904 308.813C136.818 309.469 141.881 310.086 146.767 310.855C146.524 311.967 146.49 313.378 146.425 314.538C144.339 314.468 142.972 314.331 140.913 314.063C140.537 316.467 140.146 318.869 139.74 321.269L146.537 321.137C146.63 322.983 147.189 324.505 145.215 324.947C142.626 325.092 131.54 326.061 129.812 325.748C128.756 324.686 128.893 323.268 128.804 321.748C131.163 321.551 133.597 321.53 135.969 321.476C136.208 318.824 136.422 316.17 136.61 313.514C134.866 313.282 133.119 313.078 131.368 312.903C131.447 311.434 131.661 310.253 131.904 308.813Z"/><path fill="#163144" d="M58.3106 273.872C59.6263 274.265 69.2901 281.245 71.5174 282.73C75.8911 285.685 80.3435 288.521 84.8698 291.236L82.4545 295.312C73.8204 289.315 64.3237 283.889 55.7767 277.585C56.6078 276.47 57.5184 275.043 58.3106 273.872Z"/><path fill="#163144" d="M281.259 196.822C282.216 196.762 282.033 196.633 282.761 197.017C283.735 198.896 284.057 199.54 284.204 201.717C284.299 203.123 283.87 203.35 282.833 204.502C284.858 204.807 288.976 205.047 289.227 207.486C288.927 208.34 288.696 208.559 288.125 209.241C286.609 210.121 281.028 208.385 279.107 207.922C276.446 207.375 273.467 206.829 270.89 206.059C271.212 204.509 271.517 203.496 272.003 201.982C274.833 202.547 277.121 203.045 279.895 203.813C279.264 202.119 278.544 199.302 278.025 197.487C279.034 197.239 280.226 197.029 281.259 196.822Z"/><path fill="#163144" d="M101.65 296.305C102.733 296.828 103.785 297.282 104.747 298.004C104.715 299.417 99.4214 306.771 98.2009 308.12C99.2852 308.236 100.482 308.496 101.563 308.705C100.902 310.278 100.601 310.817 99.6619 312.246C95.4837 311.786 91.4405 310.813 87.2344 310.328L87.6264 306.113C89.8985 306.431 92.8137 307.08 95.1143 307.526C96.2081 305.119 100.136 298.861 101.65 296.305Z"/><path fill="#163144" d="M77.1856 217.167C78.7264 217.419 80.6559 218.701 82.0449 219.516C81.9033 221.787 80.0758 234.062 78.6761 235.088C77.3487 234.678 74.8258 233.561 73.4117 233.018C74.5338 229.591 76.5145 220.724 77.1856 217.167Z"/><path fill="#DBE7ED" d="M261.951 289.733C263.358 291.765 264.755 293.805 266.141 295.852L265.316 296.111L265.048 295.882C264.988 296.823 265.058 297.528 264.513 298.261C263.824 298.512 264.173 298.478 263.424 298.324C262.845 298.772 262.817 298.806 262.128 299.019C262.657 299.671 262.74 299.71 262.853 300.508C262.578 301.466 261.678 301.993 260.851 302.658C259.567 301.196 257.06 298.032 256.645 296.113C256.481 295.357 256.969 294.803 257.407 294.207C257.025 293.982 256.157 293.828 255.693 293.721C257.92 291.852 259.924 291.928 261.595 290.468L261.951 289.733Z"/><path fill="#163144" d="M257.407 294.207C258.877 294.744 260.89 297.655 262.128 299.019C262.657 299.671 262.74 299.71 262.853 300.508C262.578 301.466 261.678 301.993 260.851 302.658C259.567 301.196 257.06 298.032 256.645 296.113C256.481 295.357 256.969 294.803 257.407 294.207Z"/><path fill="#163144" d="M263.424 298.324C262.556 297.064 259.166 294.241 259.851 292.825C263.28 292.332 262.864 293.902 265.048 295.882C264.988 296.823 265.058 297.528 264.513 298.261C263.824 298.512 264.173 298.478 263.424 298.324Z"/><path fill="#163144" d="M272.587 209.105C275.98 209.139 283.892 210.947 286.91 212.512C286.536 213.763 286.331 214.704 285.479 215.711C282.763 215.474 274.104 213.434 271.449 212.573C271.725 211.502 272.22 210.176 272.587 209.105Z"/><path fill="#163144" d="M271.187 215.105C274.018 215.295 282.091 217.138 284.943 217.967C284.777 219.145 284.411 220.477 284.121 221.647C282.136 221.504 271.473 219.779 270.612 218.43C270.442 217.318 270.874 216.207 271.187 215.105Z"/><path fill="#163144" d="M102.33 295.273C100.324 294.452 91.0902 292.157 95.1318 288.88C96.7403 288.3 98.9915 289.769 100.801 290.518C101.669 291.376 102.144 291.366 103.337 291.286L103.61 291.647C105.026 292.431 107.099 292.538 107.764 293.928C107.785 294.947 106.92 296.197 106.295 296.993C105.361 297.046 105.05 296.908 104.747 298.004C103.785 297.282 102.733 296.828 101.65 296.305L102.33 295.273Z"/><path fill="#DBE7ED" d="M102.33 295.273C103.841 295.817 104.867 296.302 106.295 296.993C105.361 297.046 105.05 296.908 104.747 298.004C103.785 297.282 102.733 296.828 101.65 296.305L102.33 295.273Z"/><path fill="#163144" d="M93.9523 194.249C92.7262 193.353 91.2775 193.063 91.1286 191.531C91.6563 190.341 92.9805 189.512 94.289 189.672C95.756 190.4 96.4199 191.519 96.0742 193.128C97.8536 193.481 98.47 191.517 100.491 193.67C100.272 194.554 100.283 194.861 99.5948 195.451C98.9783 195.949 98.9268 196.024 98.7445 196.794C97.4289 197.023 93.1939 197.936 92.2006 197.742C91.5993 196.779 90.7231 197.037 89.6426 196.993C88.7433 196.673 88.7536 196.152 88.4607 195.34C89.6155 193.846 92.179 194.236 93.9523 194.249Z"/><path fill="#DBE7ED" d="M89.6426 196.993C92.4307 196.359 96.8122 195.685 99.5948 195.451C98.9783 195.949 98.9268 196.024 98.7445 196.794C97.4289 197.023 93.1939 197.936 92.2006 197.742C91.5993 196.779 90.7231 197.037 89.6426 196.993Z"/><path fill="#163144" d="M71.1396 193.186C73.324 194.082 77.6864 195.478 78.8384 197.266L78.1506 198.189C77.2483 199.039 76.3396 200.4 75.5954 201.43C72.8273 199.545 71.3666 198.493 68.1199 197.779C69.327 196.109 70.137 194.993 71.1396 193.186Z"/><path fill="#163144" d="M71.1012 205.962C72.8844 205.89 78.6302 207.486 78.6989 209.875C78.7319 211.024 77.6949 211.933 76.9064 212.62C74.7589 212.969 69.6479 211.28 69.4446 208.723C69.3601 207.66 70.4398 206.673 71.1012 205.962Z"/><path fill="#163144" d="M84.6272 207.306C85.1371 207.312 85.8244 207.295 86.3046 207.387L87.191 207.472C87.1145 209.728 88.4762 209.937 88.4141 212.374C87.5349 212.53 87.3267 212.622 86.5042 212.982L85.9966 213.415C86.1584 213.79 86.3606 214.204 86.4663 214.591L84.3879 215.208C84.4639 214.198 83.9372 214.204 83.174 213.877C82.3922 214.494 81.9345 214.662 80.973 214.7C78.9654 213.701 79.6235 209.52 81.5686 208.91C82.3675 209.164 82.0806 208.991 82.6311 209.686C83.8957 211.095 82.8452 211.161 83.9505 212.742C84.7326 211.374 83.4609 210.528 83.9483 208.421L84.015 208.144L84.6272 207.306Z"/><path fill="#1E3032" d="M83.174 213.877C82.3922 214.494 81.9345 214.662 80.973 214.7C78.9654 213.701 79.6235 209.52 81.5686 208.91C82.3675 209.164 82.0806 208.991 82.6311 209.686C82.7836 211.15 82.9363 212.426 83.174 213.877Z"/><path fill="#F7F9FB" d="M82.6311 209.686C83.8957 211.095 82.8452 211.161 83.9505 212.742C84.7326 211.374 83.4609 210.528 83.9483 208.421L84.015 208.144C84.7901 210.037 84.0361 213.056 85.9966 213.415C86.1584 213.79 86.3606 214.204 86.4663 214.591L84.3879 215.208C84.4639 214.198 83.9372 214.204 83.174 213.877C82.9363 212.426 82.7836 211.15 82.6311 209.686Z"/><path fill="#DBE7ED" d="M86.3046 207.387L87.191 207.472C87.1145 209.728 88.4762 209.937 88.4141 212.374C87.5349 212.53 87.3267 212.622 86.5042 212.982C86.7947 212.21 86.2503 208.958 86.3046 207.387Z"/><path fill="#163144" d="M94.086 293.791C95.4475 294.263 96.2632 294.444 97.6834 294.737C97.1407 297.22 95.3664 302.937 94.598 305.666C93.5797 305.689 92.0843 305.196 91.0569 304.911C92.1398 301.225 93.1497 297.517 94.086 293.791Z"/><path fill="#163144" d="M253.559 297.434C253.889 297.424 254.905 297.387 255.14 297.555C257.371 299.139 259.68 303.232 258.479 305.799C257.656 305.989 257.445 305.985 256.596 305.973C255.504 305.403 252.96 299.135 253.559 297.434Z"/><path fill="#163144" d="M100.801 290.518C100.455 288.468 100.029 285.872 102.456 285.03C104.502 285.325 104.632 287.354 104.933 289.008C104.516 289.939 104.175 290.796 103.61 291.647L103.337 291.286C102.144 291.366 101.669 291.376 100.801 290.518Z"/><path fill="#163144" d="M157.147 297.935C159.091 298.334 161.317 299.628 161.372 301.837C161.173 302.736 160.626 303.068 159.929 303.66C158.07 303.5 155.825 301.554 155.718 299.555C156.176 298.481 156.14 298.733 157.147 297.935Z"/><path fill="#163144" d="M110.988 202.941C113.684 203.424 116.048 206.717 113.531 209.026C113.113 209.019 112.687 208.971 112.268 208.935C110.753 207.942 109.83 205.777 109.935 204.017C109.964 203.514 110.608 203.216 110.988 202.941Z"/><path fill="#163144" d="M106.367 204.197C107.463 204.35 107.864 204.336 108.569 205.325C109.566 206.724 110.233 208.888 108.86 210.215C107.936 210.456 108.313 210.423 107.259 210.151C106.471 209.118 106.996 206.667 106.234 205.337L106.367 204.197Z"/></svg>